<svg xmlns="http://www.w3.org/2000/svg" xmlns:xlink="http://www.w3.org/1999/xlink" xml:space="preserve" width="492.801" height="492.801" style="shape-rendering:geometricPrecision;text-rendering:geometricPrecision;image-rendering:optimizeQuality;fill-rule:evenodd;clip-rule:evenodd" viewBox="0 0 13036.98 13036.98"><defs><linearGradient id="id0" x1="5855.23" x2="5855.23" y1="6669.04" y2="5790.91" gradientUnits="userSpaceOnUse"><stop offset="0" style="stop-opacity:1;stop-color:#2b2a29"/><stop offset=".71" style="stop-opacity:1;stop-color:#434342"/><stop offset="1" style="stop-opacity:1;stop-color:#5c5c5c"/></linearGradient><linearGradient id="id1" x1="5813.92" x2="5919.8" y1="6534.82" y2="6534.82" gradientUnits="userSpaceOnUse"><stop offset="0" style="stop-opacity:1;stop-color:#c5c6c6"/><stop offset=".502" style="stop-opacity:1;stop-color:#fefefe"/><stop offset="1" style="stop-opacity:1;stop-color:#c3c4c4"/></linearGradient><linearGradient id="id2" x1="5781.65" x2="5884.87" y1="6714.94" y2="6714.94" gradientUnits="userSpaceOnUse"><stop offset="0" style="stop-opacity:1;stop-color:#c5c6c6"/><stop offset=".012" style="stop-opacity:1;stop-color:#aab1b1"/><stop offset=".502" style="stop-opacity:1;stop-color:#fefefe"/><stop offset="1" style="stop-opacity:1;stop-color:#8f8f8f"/></linearGradient><linearGradient xlink:href="#id1" id="id3" x1="8200.79" x2="8343.55" y1="4787.98" y2="4787.98" gradientUnits="userSpaceOnUse"/><linearGradient xlink:href="#id1" id="id4" x1="8200.79" x2="8343.55" y1="7735.04" y2="7735.04" gradientUnits="userSpaceOnUse"/><linearGradient xlink:href="#id1" id="id5" x1="8611.37" x2="8754.13" y1="7735.04" y2="7735.04" gradientUnits="userSpaceOnUse"/><linearGradient xlink:href="#id1" id="id6" x1="7109.77" x2="7109.77" y1="6603.74" y2="6460.99" gradientUnits="userSpaceOnUse"/><linearGradient xlink:href="#id1" id="id7" x1="7109.77" x2="7109.77" y1="5933.68" y2="5790.91" gradientUnits="userSpaceOnUse"/><linearGradient xlink:href="#id1" id="id8" x1="4632.93" x2="4632.93" y1="6603.74" y2="6460.99" gradientUnits="userSpaceOnUse"/><linearGradient xlink:href="#id1" id="id9" x1="4632.93" x2="4632.93" y1="5933.68" y2="5790.91" gradientUnits="userSpaceOnUse"/><linearGradient xlink:href="#id1" id="id10" x1="8600.5" x2="8743.26" y1="4787.98" y2="4787.98" gradientUnits="userSpaceOnUse"/><linearGradient xlink:href="#id1" id="id11" x1="9000.73" x2="9143.5" y1="7735.04" y2="7735.04" gradientUnits="userSpaceOnUse"/><linearGradient xlink:href="#id1" id="id12" x1="9000.73" x2="9143.5" y1="4787.98" y2="4787.98" gradientUnits="userSpaceOnUse"/><linearGradient id="id13" x1="5660.54" x2="5660.54" y1="6669.04" y2="5800.77" gradientUnits="userSpaceOnUse"><stop offset="0" style="stop-opacity:1;stop-color:#2f2f2f"/><stop offset=".612" style="stop-opacity:1;stop-color:#606060"/><stop offset="1" style="stop-opacity:1;stop-color:#919291"/></linearGradient><linearGradient xlink:href="#id2" id="id14" x1="5180.1" x2="5311.37" y1="6899.59" y2="6899.59" gradientUnits="userSpaceOnUse"/><style>.mini-str0{stroke:#2b2a29;stroke-width:20;stroke-miterlimit:22.9256}.mini-fil0{fill:none}.mini-fil8{fill:#d9dada}.mini-fil5{fill:#c5c6c6}.mini-fil7{fill:#b2b3b3}.mini-fil33{fill:#5b5b5b}.mini-fil3{fill:#434242}.mini-fil2{fill:#2b2a29}.mini-fil4{fill:#ef7f1a}.mini-fil6{fill:#c0621e}.mini-fil18{fill:#9b531e}.mini-fil19{fill:#86481e}.mini-fil32,.mini-fil9{fill:#fefefe;fill-rule:nonzero}.mini-fil32{fill:#2b2a29}</style></defs><path id="Layer_x0020_1" d="M0 0h13036.98v13036.98H0z" class="mini-fil0"/><g id="Layer_x0020_1_0"><g id="_2785752172112"><path d="M3893.13 6299.83h4217.19M3893.13 6054.34h4217.19" class="mini-fil0 mini-str0"/><path d="M5393.44 5571.9c.36-.41 125.52-143.27 183.76-337.41 23.12-77.06 45.22-181.9 69.63-297.67 42.41-201.19 91.56-434.29 165.47-623.16 109.09-278.78 336.59-493.52 608.75-600.95 119.58-47.19 248.48-73.69 380.34-75.74 131.72-2.05 265.74 20.47 395.58 71.27 293.41 114.81 565.41 372.91 740.69 816.76l.12-.05c38.64 97.88 99.39 336.99 142.84 637.34 31 214.21 74.73 388.93 74.73 638.48 0 269.04-13.44 606.55-1.9 842.71 13.97 285.95 33.64 533.2 52.06 692.18 11.82 102 75.18 208.49 156.74 304.93 122.33 144.65 281.83 262.79 379.46 316.25 94.07 51.52 233.64 128.39 339.73 189.02 123.53 70.59 186.97 114.24 248.3 147.2v182.53c-2.13-3-226.23-122.32-332.28-182.93-123.51-70.58-252.74-141.85-336.43-187.69-110.95-60.75-291.2-193.84-427.73-355.27-100.76-119.13-179.61-255.5-195.75-394.86-18.55-160.05-38.45-411.06-52.73-703.43-11.94-244.2 1.25-585.5 1.25-850.64 0-242.14-42.89-408.4-72.75-614.68-41.36-285.91-97.63-509.53-132.93-598.96v-.33c-155.87-394.87-392.17-622.27-644.92-721.17-109.33-42.78-221.81-61.74-332.09-60.02-110.15 1.71-218.9 24.28-320.83 64.49-229.64 90.65-421.34 271.15-512.86 505.07-69.1 176.57-116.57 401.72-157.53 596.03-25.48 120.81-48.54 230.19-72.94 311.56-68.72 229.09-217.06 398.42-217.48 398.9l-128.29-109.77z" style="fill:#5b5b5b;fill-rule:nonzero"/><path d="M5711.33 5555.81h305.21l79.99 79.99v1252.02h-385.2v-218.78h-126.97V5375.92h126.97z" class="mini-fil2"/><path d="M5118.73 6835.06H5781.65v-166.02h-408.92v-65.29h-254z" class="mini-fil2"/><path d="M8030.78 10368.52v652.35l-46.55 46.55H4337.94l-386.21-386.22v-453.93l121.28-210.04h214.15l77.78 134.73h2434.19l72.52-125.61h230.08l152.36 263.86h698.39z" class="mini-fil3"/><path d="M3332.11 5729.39h521.02l40 40v859.63l-40 39.98h-521.02l-39.99-39.98v-859.63z" class="mini-fil4"/><path d="M3768.56 5911.46c32.73 0 59.25 26.53 59.25 59.26s-26.53 59.25-59.25 59.25c-32.74 0-59.26-26.53-59.26-59.25 0-32.74 26.53-59.26 59.26-59.26zM3768.56 6357.98c32.73 0 59.25 26.53 59.25 59.26s-26.53 59.25-59.25 59.25c-32.74 0-59.26-26.53-59.26-59.25 0-32.74 26.53-59.26 59.26-59.26z" class="mini-fil5"/><path d="M3532.08 6071.71c70.41 0 127.49 57.07 127.49 127.49 0 70.41-57.08 127.49-127.49 127.49-70.42 0-127.49-57.08-127.49-127.49 0-70.42 57.07-127.49 127.49-127.49z" class="mini-fil6"/><path d="M3532.08 6139.94c32.73 0 59.25 26.53 59.25 59.26s-26.53 59.25-59.25 59.25c-32.74 0-59.26-26.53-59.26-59.25 0-32.74 26.53-59.26 59.26-59.26z" class="mini-fil5"/><path d="M3532.08 6168.44c16.99 0 30.76 13.77 30.76 30.77 0 16.99-13.77 30.76-30.76 30.76-16.99 0-30.77-13.77-30.77-30.76 0-17 13.78-30.77 30.77-30.77zM3768.56 5939.95c16.99 0 30.76 13.78 30.76 30.77 0 16.99-13.77 30.76-30.76 30.76-16.99 0-30.77-13.77-30.77-30.76 0-16.99 13.78-30.77 30.77-30.77zM3768.56 6386.48c16.99 0 30.76 13.78 30.76 30.77 0 16.99-13.77 30.76-30.76 30.76-16.99 0-30.77-13.77-30.77-30.76 0-16.99 13.78-30.77 30.77-30.77z" class="mini-fil7"/><path d="M8193.92 5612.58h981.29l79.99 79.98v984.91l-79.99 79.99h-981.29l-79.98-79.99v-984.91z" class="mini-fil4"/><path d="m8113.94 6154.91 542.35-542.35 56.56.01 542.36 542.35-.01 56.55-542.35 542.36-56.57-.01-542.34-542.35z" class="mini-fil2"/><path d="M8684.57 6131.35c28.63 0 51.83 23.22 51.83 51.84 0 28.63-23.21 51.83-51.83 51.83-28.63 0-51.84-23.21-51.84-51.83 0-28.63 23.22-51.84 51.84-51.84zm-452.89-7.42c32.73 0 59.26 26.54 59.26 59.26 0 32.73-26.54 59.26-59.26 59.26-32.73 0-59.26-26.54-59.26-59.26 0-32.73 26.54-59.26 59.26-59.26zm452.89 571.41c-32.73 0-59.26-26.53-59.26-59.25 0-32.74 26.54-59.26 59.26-59.26 32.73 0 59.26 26.53 59.26 59.26s-26.54 59.25-59.26 59.25zm452.89-452.88c-32.74 0-59.26-26.54-59.26-59.26 0-32.73 26.53-59.26 59.26-59.26s59.25 26.54 59.25 59.26c0 32.73-26.53 59.26-59.25 59.26zm-452.89-571.42c32.73 0 59.26 26.54 59.26 59.26 0 32.73-26.54 59.26-59.26 59.26-32.73 0-59.26-26.54-59.26-59.26 0-32.73 26.54-59.26 59.26-59.26zm0 419.05c51.42 0 93.11 41.68 93.11 93.11 0 51.42-41.68 93.11-93.11 93.11-51.42 0-93.11-41.68-93.11-93.11 0-51.42 41.68-93.11 93.11-93.11zm0 34.65c32.28 0 58.46 26.18 58.46 58.46s-26.19 58.46-58.46 58.46c-32.29 0-58.46-26.19-58.46-58.46 0-32.29 26.18-58.46 58.46-58.46z" class="mini-fil8"/><path d="m8386.51 6125.61 18.56-18.56c1.54-1.54 3.18-2.68 4.92-3.42 1.73-.74 3.47-1.11 5.23-1.13 1.75-.02 3.43.31 5.03.99 1.61.67 3.07 1.67 4.39 2.99 2.02 2.02 3.35 4.2 3.98 6.53.62 2.33.36 4.84-.8 7.54l.1.1c1.19-.68 2.35-1.06 3.49-1.14 1.14-.08 2.27.05 3.38.39 1.1.34 2.18.85 3.23 1.54 1.04.69 2.03 1.44 2.96 2.24.58.52 1.25 1.13 2.02 1.83.78.71 1.59 1.41 2.44 2.1.85.69 1.71 1.3 2.58 1.81.87.51 1.72.83 2.55.96l-7.57 7.57c-1.51-.67-3.06-1.72-4.67-3.13a83.13 83.13 0 0 0-4.77-3.91c-2.06-1.54-3.92-2.31-5.59-2.31-1.68 0-3.46.95-5.35 2.84l-7.57 7.57 13.45 13.45-7.57 7.57-34.42-34.42zm34.71-34.7 25.74-25.74 6.36 6.36-18.17 18.17 7.37 7.38 16.68-16.68 5.88 5.88-16.68 16.68 8.44 8.43 18.55-18.55 6.37 6.36-26.13 26.12-34.41-34.41zm72.5-26.92c-1.17.01-2.43.31-3.78.89-1.35.58-2.78 1.33-4.29 2.26-1.51.94-3.07 1.85-4.67 2.75-1.61.97-3.26 1.83-4.95 2.58-1.68.76-3.38 1.25-5.08 1.47-1.7.23-3.41.08-5.11-.43-1.7-.52-3.34-1.56-4.92-3.14-1.76-1.76-2.92-3.67-3.47-5.73-.54-2.06-.64-4.13-.29-6.22.36-2.09 1.1-4.11 2.22-6.07a25.44 25.44 0 0 1 4-5.26c1.8-1.8 3.73-3.32 5.79-4.58 2.05-1.25 4.17-2.07 6.36-2.45 2.18-.39 4.35-.26 6.51.38 2.15.64 4.22 1.96 6.21 3.95l-7.32 7.33c-1.09-.96-2.16-1.6-3.21-1.9-1.04-.31-2.06-.35-3.06-.12-.99.22-1.97.65-2.91 1.27-.95.63-1.89 1.41-2.82 2.34-.62.61-1.16 1.29-1.64 2.02-.49.75-.81 1.52-.99 2.34-.18.82-.19 1.63-.03 2.44.17.8.62 1.57 1.35 2.31.68.68 1.35 1.09 2.03 1.25.67.16 1.57.04 2.67-.36 1.11-.4 2.51-1.09 4.2-2.07 1.68-.98 3.88-2.27 6.58-3.88.77-.51 1.89-1.17 3.37-1.98 1.48-.8 3.15-1.39 5.01-1.78 1.87-.38 3.83-.37 5.88.05 2.06.42 4.05 1.59 5.98 3.52 1.58 1.57 2.73 3.34 3.47 5.3.74 1.96 1 4.03.77 6.22-.22 2.18-.95 4.44-2.19 6.77-1.24 2.33-3.03 4.67-5.37 7.01a30.8 30.8 0 0 1-6.22 4.82c-2.25 1.32-4.56 2.16-6.92 2.53-2.36.37-4.72.19-7.06-.55-2.35-.74-4.56-2.19-6.65-4.34l7.32-7.33c1.16 1.16 2.35 1.93 3.57 2.32 1.22.38 2.43.48 3.62.29 1.18-.2 2.36-.64 3.54-1.33 1.17-.69 2.26-1.53 3.25-2.53.68-.67 1.34-1.45 2-2.34.66-.88 1.17-1.82 1.52-2.82.35-.99.48-2 .36-3.01-.11-1.01-.6-1.95-1.47-2.82-.93-.93-1.98-1.39-3.16-1.37zm-10.19-35.41 25.74-25.73 6.36 6.36-18.17 18.17 7.37 7.37 16.68-16.67 5.88 5.88-16.68 16.68 8.44 8.43 18.56-18.56 6.36 6.36-26.12 26.13-34.42-34.42zm40.53-40.52 7.76-7.76 47.27 21.54-7.85 7.86-10.27-5.06-12.87 12.87 4.96 10.36-7.61 7.62-21.4-47.42zm23.52-23.52 18.56-18.56c1.54-1.54 3.18-2.68 4.91-3.42 1.74-.74 3.48-1.12 5.23-1.14 1.75-.01 3.43.32 5.04.99 1.61.68 3.07 1.67 4.39 2.99 2.02 2.02 3.35 4.2 3.97 6.53.63 2.33.36 4.85-.79 7.54l.09.1c1.19-.67 2.36-1.05 3.5-1.13a9.41 9.41 0 0 1 3.37.38c1.11.34 2.19.86 3.23 1.55 1.04.69 2.03 1.44 2.97 2.24.57.51 1.25 1.12 2.02 1.83s1.58 1.4 2.43 2.1c.85.69 1.71 1.29 2.58 1.8.87.52 1.72.84 2.56.97l-7.57 7.57c-1.51-.68-3.07-1.72-4.68-3.14-1.6-1.41-3.19-2.71-4.77-3.9-2.05-1.54-3.92-2.32-5.59-2.32-1.67.01-3.45.95-5.35 2.85l-7.57 7.57 13.45 13.44-7.57 7.57-34.41-34.41zm44.55-24.18c-1.43-2.97-2.24-6-2.44-9.08-.19-3.09.3-6.15 1.48-9.18 1.17-3.04 3.07-5.88 5.71-8.51 1.89-1.9 3.96-3.42 6.19-4.56 2.23-1.14 4.54-1.85 6.92-2.14 2.38-.29 4.77-.1 7.18.58 2.41.67 4.72 1.89 6.94 3.66l-7.33 7.33a8.641 8.641 0 0 0-3.25-1.52c-1.17-.28-2.37-.35-3.59-.22-1.22.13-2.41.47-3.57 1.01-1.15.55-2.2 1.29-3.13 2.22-1.7 1.7-2.82 3.48-3.35 5.33-.53 1.84-.61 3.69-.24 5.54s1.09 3.65 2.17 5.4a26.39 26.39 0 0 0 3.88 4.89c1.44 1.45 3.02 2.68 4.72 3.71 1.71 1.03 3.47 1.72 5.3 2.08 1.84.35 3.67.26 5.52-.27 1.85-.53 3.63-1.65 5.33-3.35 2.31-2.31 3.41-4.83 3.3-7.54-.11-2.72-1.18-5.38-3.2-7.98l7.32-7.33c1.96 2.35 3.41 4.79 4.34 7.33.93 2.54 1.35 5.08 1.25 7.62-.09 2.53-.7 5.01-1.83 7.42-1.12 2.41-2.75 4.67-4.87 6.79-2.63 2.64-5.46 4.55-8.48 5.74-3.02 1.19-6.06 1.7-9.11 1.54-3.05-.16-6.05-.94-8.99-2.34-2.94-1.39-5.66-3.35-8.17-5.85-2.57-2.57-4.57-5.34-6-8.32zm25.76-46.14 7.57-7.57 13.21 13.21 13.93-13.93-13.21-13.21 7.57-7.56 34.41 34.41-7.56 7.57-14.85-14.85-13.93 13.93 14.85 14.85-7.57 7.57-34.42-34.42zm-194.93 298.03 290.59-290.59-69.26-69.26L8353.7 6123l69.26 69.25z" class="mini-fil9"/><path d="m8309.49 6051.49 10.45-10.45c1.54-1.55 3.14-2.92 4.79-4.12 1.66-1.2 3.36-2 5.11-2.44 1.74-.42 3.53-.36 5.4.17 1.85.55 3.75 1.79 5.69 3.74 1.94 1.93 3.19 3.84 3.72 5.69.56 1.86.61 3.66.19 5.4-.43 1.75-1.25 3.44-2.45 5.1a41.22 41.22 0 0 1-4.11 4.8l-10.46 10.45-18.33-18.34zm410.08-107.59-6.9-13.7 13.62 6.99-6.72 6.71zm-15.94-16.66 16.85 35.56 5.73-5.72-3.61-7.17 9.65-9.66 7.12 3.67 5.94-5.95-35.48-16.93-6.2 6.2zm-.5 26.88c-1.79.21-3.93 1.08-6.43 2.63l-5.68 3.5c-2.19 1.36-3.71 2.17-4.57 2.41-1.31.38-2.43.1-3.37-.82-1.02-1.02-1.38-2.25-1.09-3.68.3-1.44 1.17-2.88 2.61-4.31 1.3-1.31 2.61-2.18 3.93-2.61 1.97-.65 3.8-.23 5.46 1.25l5.27-5.28c-2.88-2.68-6.04-3.78-9.48-3.26-3.44.5-6.55 2.17-9.35 4.96-3.35 3.34-5.11 6.65-5.28 9.94-.18 3.28.92 6.1 3.26 8.44 2.57 2.57 5.34 3.58 8.32 3.03 1.77-.32 4.35-1.56 7.75-3.75l3.46-2.21c2.02-1.31 3.64-2.1 4.87-2.41 1.24-.29 2.28 0 3.16.86 1.48 1.48 1.72 3.27.69 5.39-.53 1.1-1.45 2.32-2.78 3.64-2.2 2.2-4.3 3.21-6.29 3.04-1.08-.08-2.32-.65-3.68-1.68l-5.23 5.23c2.74 2.72 5.87 3.88 9.39 3.45 3.55-.41 7.04-2.34 10.49-5.79 3.37-3.39 5.2-6.79 5.48-10.24.25-3.42-.81-6.33-3.19-8.73-2.34-2.32-4.91-3.35-7.72-3zm-26.02 31.83c1.8 1.81 2.9 3.33 3.3 4.59.81 2.13.11 4.29-2.1 6.51-2.21 2.21-4.4 2.92-6.52 2.11-1.26-.41-2.78-1.5-4.58-3.3l-16.1-16.11-5.57 5.56 16.12 16.12c2.78 2.79 5.37 4.53 7.8 5.21 4.46 1.23 8.96-.43 13.5-4.96 4.53-4.53 6.18-9.02 4.94-13.47-.68-2.43-2.43-5.02-5.2-7.81l-16.12-16.11-5.57 5.56 16.1 16.1zm-32.69 22.83c-.3.88-1.05 1.89-2.21 3.07l-5.9 5.89-7.03-7.04 6.04-6.04c1.12-1.13 2.12-1.83 2.99-2.07 1.55-.46 3.12.11 4.71 1.69 1.47 1.46 1.94 2.97 1.4 4.5zm19.35 6.43c-.52-.33-1.39-1.08-2.58-2.29l-1.76-1.76c-1.84-1.84-3.46-2.94-4.86-3.34-1.4-.4-2.94-.24-4.64.49.95-1.94 1.14-3.82.57-5.65-.58-1.83-1.5-3.38-2.73-4.62-1.03-1.03-2.12-1.79-3.24-2.27-1.13-.49-2.31-.78-3.53-.89a9.18 9.18 0 0 0-4.28.62c-1.39.56-2.98 1.71-4.82 3.46l-12.53 12.54 26.21 26.21 5.36-5.35-10.3-10.28 5.36-5.34c1.53-1.53 2.84-2.3 3.96-2.3 1.11 0 2.51.83 4.2 2.49l2.47 2.4c.8.75 1.62 1.43 2.49 2.02.43.29 1.02.63 1.77 1.05l6.05-6.05-.66-.65c-.85.2-1.69.04-2.51-.49zm-44.07 18.61c-.06 1.33-.72 2.62-1.97 3.86l-4.94 4.94-7.71-7.73 4.93-4.92c1.25-1.26 2.53-1.94 3.79-2.05 1.27-.11 2.6.51 3.96 1.88 1.36 1.36 2 2.71 1.94 4.02zm-5.12-13.46c-2.9.18-5.64 1.58-8.24 4.18l-11.26 11.25 26.22 26.21 5.44-5.44-9.43-9.42 5.46-5.46c2.85-2.85 4.4-5.67 4.65-8.49.25-2.82-1.16-5.78-4.24-8.88-2.84-2.82-5.72-4.14-8.6-3.95zm-25.77 74.12 5.43-5.44-10.97-11 11.61-11.61-4.56-4.55-11.61 11.62-6.03-6.03 13.24-13.24-4.6-4.61-18.69 18.69 26.18 26.17zm-30.22 7.33 12.72-12.74-4.55-4.55-12.73 12.74-5.57-5.57 13.87-13.87-4.64-4.64-19.23 19.22 26.22 26.21 19.86-19.86-4.71-4.72-14.51 14.52-6.73-6.74zm-13.27 10.13c-1.8.21-3.95 1.09-6.43 2.63l-5.69 3.52c-2.19 1.36-3.71 2.16-4.57 2.4-1.32.39-2.44.11-3.37-.83-1.03-1.02-1.38-2.25-1.1-3.68.3-1.43 1.18-2.87 2.61-4.31 1.31-1.3 2.62-2.18 3.92-2.62 1.99-.64 3.8-.22 5.48 1.26l5.27-5.26c-2.89-2.7-6.04-3.79-9.48-3.28-3.44.53-6.56 2.17-9.35 4.96-3.35 3.35-5.11 6.68-5.28 9.95-.19 3.29.9 6.09 3.25 8.44 2.57 2.57 5.35 3.59 8.32 3.01 1.77-.3 4.35-1.56 7.75-3.72l3.47-2.23c2.01-1.29 3.64-2.1 4.86-2.41 1.24-.28 2.3 0 3.16.87 1.48 1.48 1.72 3.27.7 5.38-.55 1.11-1.47 2.32-2.78 3.64-2.21 2.21-4.3 3.22-6.29 3.05-1.09-.09-2.32-.66-3.69-1.7l-5.23 5.24c2.73 2.73 5.86 3.88 9.4 3.47 3.53-.43 7.03-2.36 10.49-5.8 3.37-3.39 5.19-6.79 5.46-10.23.28-3.44-.8-6.35-3.18-8.74-2.34-2.34-4.9-3.34-7.7-3.01zm-22.98 36.38c.33 2.88-.6 5.39-2.76 7.56-2.16 2.18-4.7 3.11-7.59 2.79-2.89-.3-5.81-1.94-8.77-4.88-2.95-2.95-4.59-5.88-4.88-8.77-.31-2.9.61-5.42 2.79-7.6 2.17-2.17 4.69-3.08 7.57-2.75 2.88.33 5.79 1.97 8.73 4.91 2.95 2.94 4.59 5.87 4.91 8.74zm-25.85-15.54c-3.75 3.74-5.6 7.64-5.54 11.65-.24 5.06 2.03 10 6.83 14.79 4.71 4.7 9.63 6.99 14.8 6.84 4.01.06 7.9-1.79 11.64-5.54 3.75-3.74 5.59-7.62 5.52-11.64.15-5.15-2.13-10.08-6.83-14.79-4.81-4.78-9.73-7.08-14.78-6.84-4.02-.05-7.9 1.79-11.64 5.53zm-3.74 42c1.27 1.27 2.05 2.28 2.36 3.05.51 1.29.15 2.55-1.07 3.76-1.22 1.22-2.43 1.61-3.62 1.15-1.21-.45-2.84-1.66-4.91-3.64l-.6-.6-5.17 5.16.6.61c3.07 3.08 6.08 4.95 9 5.59 2.93.66 6.04-.69 9.37-4.01 3.33-3.32 4.52-6.73 3.59-10.2-.55-2.07-1.94-4.21-4.17-6.43l-18.24-18.25-5.48 5.47 18.34 18.34zm-20.2 29.37-11.99-6.52-3.65 3.66 17.71 8.47c.11.07.3.4.54.98.25.58.35 1.03.28 1.35-.06.34-.21.67-.48.99-.24.35-.54.66-.88.96l-.44.4 2.63 2.63c.38-.35.66-.59.84-.76.17-.17.41-.41.7-.69 1.46-1.46 2.14-2.71 2.05-3.77-.09-1.05-.91-3.19-2.45-6.4l-8.04-16.64-3.48 3.5 6.66 11.84zm-11.63 11.41c.21 1.15-.1 2.15-.95 3.01-.98.98-2.08 1.36-3.25 1.14-1.19-.23-2.32-.88-3.39-1.95-.91-.92-1.55-1.78-1.88-2.58-.65-1.54-.36-2.9.84-4.1 1.19-1.18 2.55-1.44 4.09-.78.82.35 1.67.97 2.56 1.86 1.12 1.12 1.78 2.24 1.98 3.4zm-10.58-8.27c-.91.93-1.47 1.87-1.68 2.85-.21.81-.21 1.71-.05 2.71l-6.04-6.03-3.27 3.29 16.94 16.93 3.23-3.23-1.58-1.58c1.06.17 1.9.2 2.53.05 1.03-.2 2.08-.84 3.12-1.88 1.66-1.65 2.32-3.6 1.96-5.8-.36-2.2-1.51-4.28-3.46-6.22-1.88-1.88-3.88-2.94-6.02-3.21-2.12-.24-4.02.46-5.68 2.12zm86.04-214.59-.1.1 8.15 17.11 8.91-8.91-16.96-8.3zm45.35-33.49c.09-1.64-.73-3.33-2.47-5.07-1.66-1.66-3.31-2.45-4.92-2.33-1.64.11-3.32 1.03-5.04 2.77l-8.3 8.29 9.69 9.69 8.28-8.3c1.74-1.73 2.65-3.41 2.76-5.05zm-161.07 161.06c.09-1.64-.72-3.32-2.46-5.06-1.67-1.67-3.32-2.46-4.94-2.34-1.62.11-3.3 1.05-5.04 2.78l-8.28 8.28 9.67 9.69 8.29-8.29c1.74-1.74 2.66-3.41 2.76-5.06zm140.78-311.5.17-.16 30.16 14.73-15.84 15.85-14.49-30.42zm20.99 43.96 22.88-22.88 18.25 9 13.97-13.97-84.05-38.31-13.8 13.8 38.04 84.31 13.55-13.55-8.83-18.41zm-33.76 40.09c-.63 1.78-1.52 3.44-2.7 5.02-1.17 1.56-2.35 2.95-3.54 4.15-1.79 1.76-3.71 3.27-5.8 4.49-2.08 1.24-4.19 2.02-6.3 2.37-2.12.33-4.25.17-6.42-.52-2.17-.69-4.29-2.06-6.35-4.12l-13.02 13.03c3.71 3.83 7.66 6.4 11.82 7.71 4.18 1.31 8.36 1.65 12.56.98 4.19-.66 8.3-2.14 12.3-4.49s7.69-5.19 11.05-8.57c4.16-4.17 7.35-8.32 9.56-12.47 2.19-4.14 3.49-8.15 3.89-12.04.41-3.88-.05-7.56-1.37-11.04-1.32-3.49-3.37-6.64-6.16-9.43-3.44-3.44-6.98-5.52-10.63-6.26-3.66-.74-7.15-.78-10.46-.08-3.31.68-6.28 1.74-8.91 3.16-2.63 1.43-4.63 2.6-5.99 3.51-4.8 2.86-8.72 5.16-11.7 6.91-3.01 1.74-5.49 2.96-7.46 3.68-1.96.71-3.55.93-4.75.63-1.2-.28-2.4-1.01-3.6-2.22-1.32-1.31-2.12-2.68-2.4-4.1-.29-1.44-.28-2.88.04-4.34.31-1.46.91-2.84 1.76-4.15.84-1.32 1.81-2.52 2.92-3.6 1.64-1.66 3.32-3.04 5-4.15 1.68-1.13 3.41-1.87 5.19-2.27 1.76-.41 3.58-.34 5.44.2 1.86.55 3.76 1.68 5.69 3.38l13.03-13.01c-3.54-3.54-7.24-5.88-11.05-7.03-3.83-1.13-7.68-1.37-11.58-.69-3.87.69-7.65 2.14-11.3 4.38-3.66 2.22-7.1 4.94-10.28 8.14a44.459 44.459 0 0 0-7.12 9.33c-2 3.48-3.31 7.09-3.94 10.8-.63 3.72-.45 7.39.51 11.05.97 3.66 3.03 7.06 6.17 10.2 2.8 2.8 5.72 4.66 8.75 5.57 3.03.91 6.05 1.17 9.08.78 3.03-.4 6.04-1.27 9.04-2.63 3-1.33 5.92-2.86 8.79-4.57 2.85-1.6 5.61-3.23 8.3-4.88 2.69-1.67 5.22-3.01 7.62-4.04 2.42-1.03 4.64-1.55 6.74-1.58 2.08-.04 3.94.79 5.61 2.44 1.54 1.54 2.41 3.23 2.62 5 .19 1.81-.01 3.59-.65 5.37zm-56.12 79.77c8.18-8.18 12.55-16.59 13.16-25.24.6-8.66-3.24-17.12-11.53-25.41l-38.04-38.04-13.46 13.45 38.05 38.05c4.57 4.57 7.01 8.84 7.33 12.8.31 3.97-1.94 8.36-6.73 13.16-2.75 2.74-5.31 4.55-7.71 5.39-2.4.87-4.67 1.13-6.82.82-2.13-.32-4.15-1.13-6.04-2.44-1.89-1.32-3.65-2.8-5.31-4.45l-38.04-38.06-13.47 13.46 38.06 38.04c8.33 8.34 16.77 12.25 25.32 11.71 8.53-.55 16.95-4.96 25.23-13.24zm-126.11 21.92 14.73-14.73c3.09-3.08 6.07-4.73 8.96-4.92 2.89-.21 5.82 1.18 8.78 4.15 3.08 3.09 4.55 6.08 4.37 9-.17 2.92-1.8 5.91-4.88 9l-14.74 14.73-17.22-17.23zm26.83 26.83 13.44-13.45c3.36-3.37 6.54-5.06 9.52-5.06 2.96 0 6.28 1.38 9.94 4.11a152 152 0 0 1 8.48 6.95c2.86 2.5 5.62 4.37 8.31 5.57l13.45-13.46c-1.48-.22-3-.8-4.54-1.71-1.54-.91-3.06-1.99-4.58-3.22a90.15 90.15 0 0 1-4.33-3.72c-1.38-1.25-2.57-2.34-3.6-3.26a52.954 52.954 0 0 0-5.26-3.98c-1.87-1.24-3.78-2.15-5.76-2.75-1.96-.58-3.96-.83-5.99-.69-2.03.16-4.09.82-6.21 2.03l-.18-.18c2.07-4.8 2.54-9.27 1.42-13.41-1.11-4.13-3.47-8.01-7.07-11.62-2.35-2.33-4.95-4.09-7.8-5.3-2.85-1.2-5.83-1.79-8.95-1.76-3.12.03-6.22.71-9.3 2.01-3.09 1.31-5.99 3.34-8.74 6.09l-32.98 32.99 61.16 61.18 13.46-13.46-23.9-23.91zm-55.01 58.95 14.14-14.14c3.82-3.84 6.52-7.64 8.1-11.44 1.56-3.79 2.28-7.46 2.14-10.97-.14-3.51-1.02-6.84-2.61-9.98-1.61-3.15-3.63-5.95-6.09-8.4-2.52-2.51-5.32-4.55-8.44-6.12-3.11-1.58-6.43-2.43-9.94-2.58-3.52-.13-7.17.57-10.97 2.15-3.79 1.56-7.62 4.27-11.44 8.08l-27.59 27.61 61.18 61.16 13.44-13.45-21.93-21.93z" class="mini-fil9"/><path d="M9098.6 5668.06c32.73 0 59.25 26.53 59.25 59.26s-26.53 59.25-59.25 59.25c-32.74 0-59.26-26.53-59.26-59.25 0-32.74 26.53-59.26 59.26-59.26zm-772.43 0c32.73 0 59.25 26.53 59.25 59.26s-26.53 59.25-59.25 59.25c-32.74 0-59.26-26.53-59.26-59.25 0-32.74 26.53-59.26 59.26-59.26zm772.43 941.73c32.73 0 59.25 26.53 59.25 59.25 0 32.74-26.53 59.26-59.25 59.26-32.74 0-59.26-26.53-59.26-59.26s26.53-59.25 59.26-59.25zm-772.43 0c32.73 0 59.25 26.53 59.25 59.25 0 32.74-26.53 59.26-59.25 59.26-32.74 0-59.26-26.53-59.26-59.26s26.53-59.25 59.26-59.25z" class="mini-fil5"/><path d="M8326.17 5696.56c16.99 0 30.76 13.78 30.76 30.77 0 16.99-13.77 30.76-30.76 30.76-16.99 0-30.77-13.77-30.77-30.76 0-16.99 13.78-30.77 30.77-30.77zm772.43 944.56c16.99 0 30.76 13.77 30.76 30.76 0 16.99-13.77 30.77-30.76 30.77-16.99 0-30.77-13.78-30.77-30.77 0-16.99 13.78-30.76 30.77-30.76zm-772.43 0c16.99 0 30.76 13.77 30.76 30.76 0 16.99-13.77 30.77-30.76 30.77-16.99 0-30.77-13.78-30.77-30.77 0-16.99 13.78-30.76 30.77-30.76zm772.43-944.56c16.99 0 30.76 13.78 30.76 30.77 0 16.99-13.77 30.76-30.76 30.76-16.99 0-30.77-13.77-30.77-30.76 0-16.99 13.78-30.77 30.77-30.77z" class="mini-fil7"/><path d="M6109.22 5933.68v-142.77h2001.1v142.77z" style="fill:url(#id7)"/><path d="M3893.14 5933.68v-142.77h1479.59v142.77z" style="fill:url(#id9)"/><path d="M6109.22 6603.75v-142.77h2001.1v142.77z" style="fill:url(#id6)"/><path d="M5781.65 6760.85h103.22v-91.81h-103.22z" style="fill:url(#id2)"/><path d="M5813.92 6399.11h105.88v271.42h-105.88z" style="fill:url(#id1)"/><path d="M3893.14 6603.75v-142.77h1479.59v142.77z" style="fill:url(#id8)"/><path d="M5372.73 5790.91h224.32v878.13h-224.32z" class="mini-fil3"/><path d="M5419.3 5922.01h129.1v613.71h-129.1z" class="mini-fil2" style="stroke:#2b2a29;stroke-width:20;stroke-miterlimit:22.9256"/><path d="M5724.02 6669.04h262.42v-878.13h-262.42z" style="fill:url(#id0)"/><path d="M5724.02 6234.91v434.13h-126.97v-868.27c28.67 65.37 57.33 130.73 78.5 203.09 21.17 72.36 34.82 151.7 48.47 231.04z" style="fill:url(#id13)"/><path d="M5869.22 5790.91h78.29v-309.34h-78.29z" class="mini-fil18"/><path d="M5790.91 5481.57h78.31v309.34h-78.31z" class="mini-fil19"/><path d="m8212.84 5590.03 55.36-55.36-156.49-156.5-55.36 55.35z" class="mini-fil18"/><path d="m8000.98 5488.89 55.37-55.37 156.49 156.51-55.36 55.36z" class="mini-fil19"/><path d="M5619.52 6820.1h438.06v135.43h-438.06z" class="mini-fil7"/><path d="M5659.73 6760.85h347.06v113.45h-347.06zM5659.73 6900.53h347.06v74.06h-347.06z" class="mini-fil8"/><path d="M5833.26 6974.59h78.3v64.57h-78.3z" style="fill:#f1cb42"/><path d="M5754.96 6974.59h78.3v64.57h-78.3z" style="fill:#a4752d"/><path d="M5794.02 7039.24h79.96l-39.98 39.98z" style="fill:#e0bd3d"/><path d="M5180.1 6964.14h131.27v-129.08H5180.1z" style="fill:url(#id14)"/><path d="M5180.1 7056.19h131.27v-92.05H5180.1z" style="fill:#e0bd3d"/><path d="m3332.11 5729.39-39.99 40h601.01l-40-40zM3332.11 6669l-39.99-39.98h601.01l-40 39.98z" class="mini-fil6"/><path d="M8200.79 3963.4h142.76v1649.18h-142.76z" style="fill:url(#id3)"/><path d="M9000.74 3963.4h142.76v1649.18h-142.76z" style="fill:url(#id12)"/><path d="M8600.51 3963.4h142.76v1649.18h-142.76z" style="fill:url(#id10)"/><path d="M8200.79 6757.46h142.76v1955.18h-142.76z" style="fill:url(#id4)"/><path d="M8611.37 6757.46h142.76v1955.18h-142.76z" style="fill:url(#id5)"/><path d="M9000.74 6757.46h142.76v1955.18h-142.76z" style="fill:url(#id11)"/><path d="M5619.61 6925.68c-14.26 1.45-40.68 4.6-67.48-17.01-157.01-126.65-228.74-221.91-297.13-326.17-71.51-109.01-100.42-222.65-98.18-380.58 3.88-273.77 140.98-442.17 233.09-555.31 12.74-15.65 26.64-31.38 37.53-45.62l61 52.19c-10.57 13.82-21.95 27.68-35.68 44.54-85 104.41-211.52 259.82-215 505.15-1.99 140.45 23.08 240.56 85.16 335.18 60.4 92.08 116.18 174.33 255.91 290.05 8.51 7.05 32.64 21.71 42.29 20.51l-1.51 77.06z" style="fill:#e31e24;fill-rule:nonzero"/><path d="M5869.22 5481.57c42.96-680.05 191.1-2025.98 902.15-2038.68 711.05-12.7 885.92 1623.38 1284.97 1990.62" class="mini-fil0" style="stroke:#d9dada;stroke-width:84.65;stroke-miterlimit:22.9256"/><path d="M5869.22 5481.57c42.96-680.05 191.1-2025.98 902.15-2038.68 711.05-12.7 885.92 1623.38 1284.97 1990.62" class="mini-fil0" style="stroke:#b2b3b3;stroke-width:33.86;stroke-miterlimit:22.9256"/><path d="M6349.85 10830.67h84.54v-320.54h1.15l100.64 320.54h69.59l100.65-323.74h1.15v323.74h84.54v-456.81h-127.1l-90.87 314.14h-1.15l-96.04-314.14h-127.09v456.81zm521.61 0h90.3v-456.81h-90.3v456.81zm169.66 0h84.55v-305.82h1.14l170.82 305.82h90.28v-456.81h-84.53v306.46h-1.15l-171.39-306.46h-89.72v456.81zm426.16 0h90.3v-456.81h-90.3v456.81zM5186.48 10627.94h40.61c5.99 0 11.76.45 17.31 1.33 5.55.89 10.43 2.61 14.66 5.16 4.21 2.55 7.59 6.16 10.15 10.82 2.55 4.66 3.83 10.77 3.83 18.31 0 7.55-1.28 13.66-3.83 18.31-2.56 4.66-5.94 8.28-10.15 10.82-4.23 2.56-9.11 4.28-14.66 5.16-5.55.89-11.32 1.34-17.31 1.34h-40.61v-71.24zm-52.26 197.07h52.26v-85.22h54.93c14.86 0 27.52-2.17 37.95-6.49 10.43-4.34 18.93-10.05 25.48-17.16 6.54-7.1 11.32-15.2 14.31-24.3 3-9.1 4.5-18.53 4.5-28.3 0-9.54-1.5-18.92-4.5-28.14-2.99-9.2-7.77-17.36-14.31-24.47-6.55-7.1-15.05-12.81-25.48-17.14s-23.09-6.5-37.95-6.5h-107.2v237.7zm260.47-197.07h57.25c11.77 0 20.7 2.61 26.81 7.82 6.1 5.21 9.15 13.6 9.15 25.14 0 11.98-3.05 20.64-9.15 25.97-6.11 5.32-15.04 7.99-26.81 7.99h-57.25v-66.91zm-52.27 197.07h52.27v-92.88h52.26c13.09 0 22.53 2.89 28.3 8.65 5.77 5.78 9.54 14.88 11.32 27.31.66 4.66 1.17 9.6 1.5 14.81.33 5.22.77 10.32 1.33 15.32.55 4.99 1.21 9.77 1.99 14.32.78 4.55 1.95 8.71 3.51 12.48h52.26c-2.45-3.33-4.28-7.43-5.5-12.32-1.22-4.88-2.11-9.93-2.66-15.14-.56-5.22-.95-10.38-1.17-15.49-.22-5.1-.44-9.54-.66-13.32-.45-5.99-1.28-11.93-2.5-17.81-1.22-5.88-3.16-11.37-5.83-16.48-2.66-5.1-6.1-9.49-10.32-13.15-4.22-3.67-9.55-6.38-15.98-8.16v-.66c13.32-5.34 22.92-13.1 28.8-23.31 5.88-10.21 8.82-22.31 8.82-36.29 0-8.88-1.61-17.31-4.82-25.31-3.23-7.99-7.89-14.98-13.99-20.98-6.11-5.99-13.43-10.7-21.97-14.14-8.55-3.44-18.14-5.17-28.8-5.17h-128.17v237.7zm430.64-237.7h-52.26v147.81c0 17.76-3.56 30.8-10.66 39.12-7.1 8.32-19.98 12.48-38.62 12.48-10.65 0-19.14-1.44-25.47-4.33-6.33-2.88-11.27-6.77-14.82-11.65-3.55-4.88-5.88-10.43-6.99-16.64-1.11-6.21-1.66-12.55-1.66-18.99v-147.81h-52.26v147.81c0 32.41 8.82 56.43 26.46 72.08 17.65 15.64 42.56 23.47 74.74 23.47 31.74 0 56.59-7.88 74.57-23.64 17.98-15.75 26.97-39.72 26.97-71.91v-147.81zm21.08 158.8c-.23 14.65 2.5 27.31 8.16 37.96 5.65 10.65 13.15 19.42 22.47 26.3 9.32 6.88 20.14 11.99 32.46 15.32 12.32 3.32 25.03 4.99 38.12 4.99 16.2 0 30.47-1.95 42.78-5.82 12.32-3.89 22.63-9.22 30.96-15.99 8.32-6.77 14.59-14.82 18.81-24.14 4.22-9.32 6.33-19.42 6.33-30.29 0-8.88-1.33-16.71-4-23.47-2.66-6.78-6.15-12.6-10.49-17.48-4.32-4.89-9.1-8.99-14.31-12.33-5.22-3.33-10.44-6.04-15.65-8.16-5.22-2.1-10.16-3.76-14.82-4.99-4.66-1.22-8.43-2.17-11.32-2.83-14.87-3.77-26.91-6.93-36.12-9.48-9.21-2.56-16.43-5-21.64-7.33-5.22-2.33-8.72-4.94-10.49-7.82-1.78-2.89-2.66-6.67-2.66-11.33 0-4.88 1.1-9.04 3.32-12.49 2.22-3.43 5.05-6.27 8.49-8.49 3.45-2.21 7.27-3.77 11.49-4.65 4.21-.89 8.43-1.34 12.65-1.34 6.21 0 12.1.56 17.65 1.67 5.54 1.11 10.43 2.99 14.65 5.66 4.21 2.66 7.6 6.32 10.15 10.98 2.56 4.67 4.05 10.55 4.5 17.65h50.6c0-13.76-2.61-25.47-7.83-35.13-5.21-9.65-12.26-17.59-21.14-23.8-8.88-6.22-19.04-10.71-30.46-13.49-11.44-2.77-23.37-4.16-35.8-4.16-10.65 0-21.3 1.45-31.96 4.33-10.66 2.89-20.2 7.33-28.63 13.32-8.44 5.99-15.26 13.48-20.48 22.47-5.22 8.99-7.82 19.6-7.82 31.8 0 11.1 2.05 20.42 6.16 27.97 4.1 7.54 9.49 13.87 16.14 18.98 6.67 5.11 14.21 9.27 22.65 12.48 8.43 3.22 17.09 5.94 25.97 8.16 8.65 2.44 17.19 4.61 25.63 6.49 8.44 1.89 15.98 4.22 22.64 6.99 6.67 2.78 12.04 6.16 16.15 10.16 4.11 3.99 6.16 9.21 6.16 15.64 0 6-1.55 10.94-4.66 14.82-3.11 3.89-6.99 6.94-11.65 9.15-4.66 2.23-9.66 3.73-14.99 4.5-5.33.78-10.32 1.16-14.98 1.16-7.11 0-13.82-.82-20.14-2.49-6.33-1.67-11.88-4.21-16.65-7.66-4.78-3.44-8.6-7.93-11.49-13.48-2.89-5.55-4.32-12.32-4.32-20.31h-50.6zm312.33-100.21h.66l29.96 87.22h-61.57l30.96-87.22zm-116.19 179.11h52.92l18.65-52.93h88.88l17.99 52.93h54.26l-88.89-237.7h-53.6l-90.21 237.7zM5167.46 10431.8c1.51-6.32 3.91-11.95 7.22-16.91 3.3-4.95 7.61-8.9 12.92-11.85 5.31-2.94 11.77-4.41 19.38-4.41 7.61 0 14.07 1.47 19.39 4.41 5.3 2.95 9.61 6.9 12.92 11.85 3.3 4.96 5.7 10.59 7.21 16.91 1.51 6.32 2.27 12.85 2.27 19.6 0 6.46-.76 12.74-2.27 18.84-1.51 6.11-3.91 11.6-7.21 16.48-3.31 4.88-7.62 8.79-12.92 11.74-5.32 2.94-11.78 4.41-19.39 4.41-7.61 0-14.07-1.47-19.38-4.41-5.31-2.95-9.62-6.86-12.92-11.74-3.31-4.88-5.71-10.37-7.22-16.48-1.5-6.1-2.26-12.38-2.26-18.84 0-6.75.76-13.28 2.26-19.6zm413.21-61.46h-9.59c-9.88.52-18.81 2.56-26.79 6.12-9.34 4.17-17.23 9.9-23.69 17.23-6.47 7.32-11.42 15.94-14.86 25.84-3.45 9.91-5.17 20.54-5.17 31.88 0 11.06 1.72 21.47 5.17 31.23 3.44 9.76 8.39 18.23 14.86 25.41 6.46 7.18 14.35 12.85 23.69 17.02 9.33 4.16 19.96 6.24 31.87 6.24 7.47 0 14.86-1.58 22.19-4.74 7.32-3.16 14-8.61 20.03-16.37l3.44 17.45h21.54v-83.13h-64.6v25.2h34.03c-1.01 10.77-4.6 18.99-10.77 24.67-6.17 5.67-14.79 8.5-25.85 8.5-7.61 0-14.07-1.47-19.38-4.41-5.31-2.95-9.62-6.86-12.92-11.74-3.31-4.88-5.71-10.37-7.22-16.48-1.5-6.1-2.26-12.38-2.26-18.84 0-6.75.76-13.28 2.26-19.6 1.51-6.32 3.91-11.95 7.22-16.91 3.3-4.95 7.61-8.9 12.92-11.85 5.31-2.94 11.77-4.41 19.38-4.41 8.04 0 14.97 2.16 20.78 6.46 5.82 4.31 9.73 10.77 11.75 19.39h32.3c-.86-8.76-3.26-16.51-7.21-23.27-3.95-6.74-8.87-12.41-14.75-17.01-5.9-4.59-12.54-8.07-19.93-10.44a74.241 74.241 0 0 0-18.43-3.43zm-368.6 0h-10.17c-9.88.52-18.81 2.56-26.8 6.12-9.33 4.17-17.23 9.9-23.68 17.23-6.47 7.32-11.42 15.94-14.86 25.84-3.45 9.91-5.17 20.54-5.17 31.88 0 11.06 1.72 21.47 5.17 31.23 3.44 9.76 8.39 18.23 14.86 25.41 6.45 7.18 14.35 12.85 23.68 17.02 9.34 4.16 19.96 6.24 31.88 6.24 11.92 0 22.54-2.08 31.88-6.24 9.33-4.17 17.23-9.84 23.69-17.02 6.46-7.18 11.42-15.65 14.86-25.41 3.45-9.76 5.17-20.17 5.17-31.23 0-11.34-1.72-21.97-5.17-31.88-3.44-9.9-8.4-18.52-14.86-25.84-6.46-7.33-14.36-13.06-23.69-17.23-7.99-3.56-16.92-5.6-26.79-6.12zm121.46 29.81h37.05c7.61 0 13.39 1.69 17.34 5.06 3.94 3.38 5.92 8.8 5.92 16.26 0 7.76-1.98 13.35-5.92 16.8-3.95 3.44-9.73 5.17-17.34 5.17h-37.05v-43.28zm-33.8 127.48h33.81v-60.07h33.81c8.47 0 14.57 1.86 18.31 5.59 3.73 3.73 6.17 9.62 7.32 17.66.43 3.02.76 6.21.97 9.58.21 3.38.5 6.68.86 9.91.36 3.23.79 6.32 1.29 9.26.5 2.95 1.26 5.64 2.26 8.08h33.82c-1.58-2.15-2.77-4.81-3.56-7.97s-1.36-6.42-1.72-9.8c-.36-3.37-.61-6.71-.75-10.01-.15-3.31-.29-6.17-.43-8.62-.29-3.87-.83-7.71-1.62-11.52-.79-3.8-2.04-7.36-3.77-10.66-1.72-3.3-3.95-6.14-6.67-8.51-2.73-2.37-6.18-4.12-10.34-5.27v-.44c8.62-3.44 14.82-8.46 18.63-15.07 3.8-6.6 5.71-14.43 5.71-23.48 0-5.74-1.05-11.2-3.13-16.36-2.08-5.17-5.09-9.7-9.04-13.57-3.95-3.88-8.69-6.93-14.22-9.16-5.53-2.22-11.73-3.34-18.62-3.34h-82.91v153.76zm149.46 0h33.82v-153.76h-33.82v153.76zm216.87 0h33.81v-153.76h-33.81v153.76zm58.29 0h31.66v-102.94h.43l63.96 102.94h33.81v-153.76h-31.66v103.16h-.43l-64.17-103.16h-33.6v153.76zm213.49-115.86h.43l19.38 56.42h-39.83l20.03-56.42zm-75.16 115.86h34.25l12.06-34.24h57.5l11.63 34.24h35.1l-57.49-153.76h-34.68l-58.36 153.76zm159.01 0h108.76v-28.43h-74.94v-125.33h-33.82v153.76z" class="mini-fil32"/><path d="M4936.06 10540.71c61.94 0 112.16-50.21 112.16-112.17 0-61.94-50.21-112.16-112.16-112.16-61.95 0-112.17 50.21-112.17 112.16 0 61.95 50.21 112.17 112.17 112.17z" class="mini-fil5"/><path d="m4936.06 10386.22 36.66 21.17v42.32l-36.66 21.17-36.65-21.17v-42.32z" class="mini-fil7"/><path d="M7204.14 11055c61.94 0 112.16-50.21 112.16-112.17 0-61.94-50.21-112.16-112.16-112.16-61.95 0-112.17 50.21-112.17 112.16 0 61.95 50.21 112.17 112.17 112.17z" class="mini-fil5"/><path d="m7204.14 10900.51 36.66 21.16v42.33l-36.66 21.16-36.65-21.16v-42.33z" class="mini-fil7"/><path d="M7745.89 10532.22c61.95 0 112.17-50.21 112.17-112.16 0-61.95-50.21-112.17-112.17-112.17-61.94 0-112.16 50.21-112.16 112.17 0 61.94 50.21 112.16 112.16 112.16z" class="mini-fil5"/><path d="m7745.89 10377.73 36.66 21.17v42.32l-36.66 21.17-36.65-21.17v-42.32z" class="mini-fil7"/><path d="M4389.54 11055c61.94 0 112.16-50.21 112.16-112.17 0-61.94-50.21-112.16-112.16-112.16-61.95 0-112.17 50.21-112.17 112.16 0 61.95 50.21 112.17 112.17 112.17z" class="mini-fil5"/><path d="m4389.54 10900.51 36.66 21.16v42.33l-36.66 21.16-36.65-21.16v-42.33z" class="mini-fil7"/><path d="M3449.26 9910.37h4262.08v115.98H3449.26zM3304.81 9787.32h4541.44v42.32H3304.81z" class="mini-fil2"/><path d="M8107.43 3963.4h1845.35v-338.56H8107.43z" class="mini-fil3"/><path d="M8824.82 3624.84h414.79v-220.07h-31.67v-275.11h31.67v-220.07h-414.79v220.07h42.31v275.11h-42.31z" class="mini-fil33"/><path d="M8867.13 3404.77H8664v-275.11h203.13z" class="mini-fil3"/><path d="M8824.82 3624.84h-118.5v-220.07H8664v-275.11h42.32v-220.07h118.5v220.07h42.31v275.11h-42.31z" class="mini-fil3"/><path d="M8230.25 3129.66v275.11h-44.52v220.07h520.59v-220.07H8664v-275.11h42.32v-220.07h-520.59v220.07zM9328.02 3963.4h550.22v5905.39h-550.22z" class="mini-fil2"/><path d="M9512.34 3963.4h181.57v5905.38h-181.57z" class="mini-fil3"/><path d="M8110.76 8712.64h1137.28l79.98 79.98v1952.04l-79.98 79.98H8110.76l-79.98-79.98V8792.62z" class="mini-fil4"/><path d="M9192.57 10067.02H8185.24v-1108.9h1007.33z" class="mini-fil2 mini-str0"/><path d="M8030.78 10744.66v229.36l1217.26-88.89 79.4-79.39v-61.08l-79.4 79.98H8110.76z" class="mini-fil18"/><path d="M8110.76 8712.64h1137.27l79.98 79.98v1952.04l-79.98 79.98H8110.76l-79.99-79.98V8792.62l79.99-79.98zm1137.27 58.9-38.07-32.8H8135.48l-24.73 23.28v1941.65l35.11 35.12h1071.91l30.26-30.25v-1937z" class="mini-fil6"/><path d="M8220.63 10293.58v266.65h220.08v-266.65" class="mini-fil0" style="stroke:#9b531e;stroke-width:20;stroke-miterlimit:22.9256"/><path d="M8714.77 10722.13c128.56 0 232.79-104.23 232.79-232.79s-104.23-232.79-232.79-232.79c-128.57 0-232.8 104.23-232.8 232.79s104.23 232.79 232.8 232.79z" class="mini-fil2 mini-str0"/><path d="m8377.82 10535.17 198.1-27.32.47-.07c18.38 63.5 76.95 109.93 146.37 109.93 27.49 0 53.26-7.29 75.53-20.02l129.22 152.29 41.26-32.8-128.54-154.81c21.79-26.36 34.89-60.17 34.89-97.04 0-84.15-68.21-152.37-152.36-152.37-79.95 0-145.51 61.57-151.86 139.88h-.01l-193.08 25.18v57.14z" class="mini-fil3"/><path d="m8377.82 10478.03-95.23 46.56v53.97l95.23-43.39z" class="mini-fil2"/><path d="m8282.59 10578.56 199.98-27.52 93.97-42.7-198.72 26.83z" class="mini-fil2"/><path d="m8927.52 10749.98 55.02 107.93 40.48-32.58-54.24-108.14z" class="mini-fil33"/><path d="m8982.54 10857.91-145.76-170.29-38.48-89.93 129.22 152.29z" class="mini-fil2"/><path d="m8817.99 10120.9-83.59 217.97 45.5 22.22 86.77-220.09z" class="mini-fil3"/><path d="m8817.99 10120.9 33.9-51.85 47.72 19.3-32.94 52.65z" class="mini-fil3"/><path d="m8899.61 10088.35-75.16 195.6-32.18 45.76 74.4-188.71z" class="mini-fil33"/><path d="M8789 9515.31h21.08v-71.63h.24c4.12 11.93 8.32 23.88 12.44 35.82 4.11 11.92 8.4 23.87 12.59 35.81h17.29c4.12-12.04 8.32-24.13 12.44-36.16 4.12-12.04 8.41-24.14 12.61-36.19h.24v72.35h21.08v-102.07h-31.67c-3.8 11.71-7.59 23.43-11.3 35.11-3.71 11.69-7.52 23.4-11.23 35.1h-.32c-4.05-11.7-8-23.41-11.96-35.1-3.96-11.69-7.91-23.4-11.87-35.11H8789v102.07zm277.82 0h22.53v-102.07h-22.53v102.07zm-105.97 0h21v-68.35h.33c7.02 11.4 14.13 22.79 21.16 34.18 7.02 11.38 14.21 22.79 21.32 34.17h22.37v-102.07h-21V9481.72h-.24c-7.11-11.41-14.22-22.83-21.33-34.23-7.11-11.4-14.21-22.83-21.32-34.25h-22.29v102.07zm-42.15 0h22.45v-102.07h-22.45v102.07z" style="fill:#ef7f1a;fill-rule:nonzero"/><path d="M8305.23 9430.1h17.45c2.57 0 5.09.2 7.43.58 2.42.38 4.52 1.11 6.3 2.2 1.86 1.11 3.32 2.66 4.36 4.66 1.13 2.01 1.69 4.63 1.69 7.85 0 3.26-.56 5.87-1.69 7.86-1.04 2.03-2.5 3.57-4.36 4.67-1.78 1.1-3.88 1.82-6.3 2.21-2.34.38-4.86.56-7.43.56h-17.45v-30.59zm-22.37 84.63h22.37v-36.58c7.84-.02 15.67-.02 23.58-.02 6.47 0 11.88-.9 16.32-2.77 4.52-1.86 8.16-4.31 10.99-7.35 2.83-3.07 4.84-6.55 6.14-10.46 1.29-3.91 1.94-7.96 1.94-12.17 0-4.09-.65-8.13-1.94-12.08-1.3-3.95-3.31-7.45-6.14-10.49-2.83-3.05-6.47-5.52-10.99-7.37-4.44-1.87-9.85-2.8-16.32-2.8h-45.94v102.07zm111.77-84.63h24.64c5.1 0 8.89 1.12 11.47 3.36 2.66 2.24 3.96 5.84 3.96 10.8 0 5.15-1.3 8.87-3.96 11.14-2.58 2.31-6.37 3.44-11.47 3.44h-24.64v-28.74zm-22.36 84.63h22.36v-39.86h22.46c5.65 0 9.7 1.24 12.19 3.7 2.52 2.48 4.12 6.39 4.85 11.74.33 2 .49 4.12.65 6.36.16 2.24.32 4.43.57 6.56.24 2.16.57 4.21.89 6.16.32 1.95.8 3.75 1.45 5.35h22.46c-1.06-1.42-1.79-3.19-2.35-5.29a53.05 53.05 0 0 1-1.13-6.5c-.25-2.23-.4-4.44-.49-6.65-.07-2.18-.24-4.1-.32-5.73-.16-2.56-.57-5.12-1.05-7.63-.56-2.53-1.37-4.88-2.5-7.08a20.126 20.126 0 0 0-4.45-5.64c-1.78-1.57-4.12-2.74-6.86-3.52v-.29c5.73-2.29 9.85-5.61 12.35-10 2.51-4.38 3.8-9.57 3.8-15.59 0-3.8-.64-7.43-2.1-10.86-1.37-3.44-3.31-6.45-5.97-9.02-2.59-2.56-5.73-4.59-9.45-6.08-3.64-1.47-7.76-2.21-12.36-2.21h-54.99v102.07zm184.94-102.08h-22.45v63.5c0 7.63-1.54 13.21-4.62 16.79-3.06 3.59-8.55 5.37-16.55 5.37-4.6 0-8.24-.63-10.99-1.87-2.66-1.23-4.84-2.9-6.29-5.01a16.922 16.922 0 0 1-3.07-7.13c-.48-2.68-.73-5.39-.73-8.15v-63.5h-22.46v63.5c0 13.91 3.8 24.22 11.39 30.96 7.6 6.71 18.34 10.04 32.15 10.04 13.57 0 24.31-3.36 31.99-10.11 7.75-6.77 11.63-17.08 11.63-30.89v-63.5zm9.04 68.2c-.08 6.3 1.06 11.73 3.48 16.31 2.43 4.56 5.66 8.33 9.69 11.29 3.96 2.97 8.65 5.15 13.9 6.56 5.32 1.45 10.74 2.13 16.39 2.13 6.95 0 13.08-.81 18.34-2.47 5.33-1.67 9.77-3.95 13.33-6.88 3.55-2.89 6.29-6.36 8.07-10.35 1.77-3.99 2.75-8.33 2.75-13.01 0-3.8-.57-7.18-1.78-10.08-1.13-2.9-2.58-5.42-4.44-7.52-1.86-2.1-3.96-3.84-6.22-5.29a39.395 39.395 0 0 0-6.7-3.5c-2.19-.9-4.36-1.62-6.39-2.13-1.93-.54-3.56-.95-4.84-1.22-6.39-1.62-11.55-2.99-15.52-4.08-3.96-1.11-7.02-2.14-9.28-3.14-2.27-1.02-3.71-2.13-4.52-3.35-.73-1.24-1.13-2.88-1.13-4.89 0-2.07.48-3.87 1.46-5.34.96-1.49 2.17-2.71 3.62-3.65 1.46-.95 3.16-1.63 4.94-2.02 1.84-.37 3.62-.56 5.4-.56 2.67 0 5.26.23 7.59.7 2.44.5 4.53 1.3 6.31 2.45 1.85 1.14 3.3 2.7 4.36 4.72 1.13 2 1.77 4.52 1.93 7.57h21.74c0-5.9-1.13-10.93-3.31-15.09a30.243 30.243 0 0 0-9.13-10.23c-3.8-2.65-8.17-4.58-13.09-5.78-4.93-1.19-10.01-1.79-15.35-1.79-4.61 0-9.12.61-13.73 1.85-4.6 1.25-8.72 3.15-12.28 5.72-3.63 2.58-6.62 5.8-8.79 9.66-2.27 3.87-3.4 8.42-3.4 13.67 0 4.74.88 8.77 2.67 12 1.77 3.25 4.03 5.97 6.94 8.15 2.82 2.2 6.06 3.98 9.7 5.37 3.62 1.38 7.35 2.55 11.14 3.5 3.72 1.07 7.43 1.99 11.07 2.8 3.55.8 6.86 1.81 9.69 2.98 2.82 1.2 5.17 2.65 6.95 4.36 1.77 1.73 2.66 3.97 2.66 6.74 0 2.57-.73 4.69-2.02 6.35-1.37 1.67-2.99 2.99-5.01 3.94-2.01.95-4.2 1.6-6.46 1.93-2.26.34-4.44.49-6.46.49-2.99 0-5.89-.34-8.65-1.06-2.66-.72-5.08-1.82-7.11-3.3-2.09-1.48-3.71-3.39-4.92-5.78-1.29-2.39-1.86-5.29-1.86-8.73h-21.73zm134.15-43.03h.24c4.28 12.5 8.57 24.99 12.85 37.46h-26.43c4.45-12.47 8.89-24.96 13.34-37.46zm-49.91 76.91h22.7c2.66-7.58 5.32-15.15 7.99-22.72h38.21c2.58 7.57 5.17 15.14 7.75 22.72h23.27c-6.39-17-12.85-34.02-19.15-51.01-6.3-17-12.76-34.05-19.06-51.06h-23.02c-6.46 17.02-13 34.07-19.38 51.06-6.38 17-12.93 34.02-19.31 51.01z" class="mini-fil9"/><path d="M8297.07 9337.76c.64-2.71 1.7-5.12 3.15-7.26 1.37-2.12 3.24-3.83 5.49-5.09 2.35-1.25 5.09-1.89 8.32-1.89 3.31 0 6.07.64 8.32 1.89 2.34 1.26 4.2 2.97 5.58 5.09 1.45 2.14 2.42 4.55 3.07 7.26.73 2.72 1.05 5.52 1.05 8.43 0 2.75-.32 5.47-1.05 8.08-.65 2.62-1.62 4.99-3.07 7.08-1.38 2.11-3.24 3.77-5.58 5.04-2.25 1.26-5.01 1.9-8.32 1.9-3.23 0-5.97-.64-8.32-1.9-2.25-1.27-4.12-2.93-5.49-5.04-1.45-2.09-2.51-4.46-3.15-7.08-.64-2.61-.96-5.33-.96-8.08 0-2.91.32-5.71.96-8.43zm177.52-26.42h-4.12c-4.29.24-8.08 1.13-11.55 2.65-4.04 1.79-7.43 4.26-10.18 7.39-2.74 3.14-4.92 6.86-6.38 11.12-1.45 4.23-2.18 8.81-2.18 13.69 0 4.75.73 9.22 2.18 13.41 1.46 4.18 3.64 7.82 6.38 10.91 2.75 3.07 6.14 5.51 10.18 7.31 4.03 1.77 8.56 2.68 13.74 2.68 3.14 0 6.37-.68 9.52-2.04 3.15-1.36 5.98-3.7 8.56-7.04.49 2.52.97 5.02 1.46 7.52h9.28v-35.72h-27.78v10.83h14.63c-.41 4.61-1.95 8.15-4.61 10.57-2.67 2.45-6.39 3.67-11.06 3.67-3.32 0-6.07-.64-8.32-1.9-2.35-1.27-4.2-2.93-5.58-5.04-1.46-2.09-2.42-4.46-3.15-7.08-.65-2.61-.98-5.33-.98-8.08 0-2.91.33-5.71.98-8.43.73-2.71 1.69-5.12 3.15-7.26 1.38-2.12 3.23-3.83 5.58-5.09 2.25-1.25 5-1.89 8.32-1.89 3.38 0 6.37.92 8.88 2.76 2.5 1.85 4.19 4.65 5.08 8.34h13.82c-.32-3.78-1.38-7.09-3.07-9.98-1.7-2.91-3.8-5.34-6.31-7.32-2.58-1.97-5.41-3.48-8.56-4.48-2.58-.83-5.25-1.31-7.91-1.5zm-158.37 0h-4.36c-4.2.24-8.08 1.13-11.48 2.65-4.03 1.79-7.43 4.26-10.17 7.39-2.75 3.14-4.94 6.86-6.38 11.12-1.46 4.23-2.1 8.81-2.1 13.69 0 4.75.64 9.22 2.1 13.41a31.98 31.98 0 0 0 6.38 10.91c2.74 3.07 6.14 5.51 10.17 7.31 3.96 1.77 8.57 2.68 13.65 2.68 5.18 0 9.7-.91 13.74-2.68 4.03-1.8 7.35-4.24 10.18-7.31 2.74-3.09 4.92-6.73 6.38-10.91 1.44-4.19 2.18-8.66 2.18-13.41 0-4.88-.74-9.46-2.18-13.69-1.46-4.26-3.64-7.98-6.38-11.12-2.83-3.13-6.15-5.6-10.18-7.39-3.48-1.52-7.27-2.41-11.55-2.65zm52.17 12.82h15.91c3.31 0 5.81.74 7.51 2.19 1.61 1.43 2.5 3.76 2.5 6.97 0 3.33-.89 5.74-2.5 7.23-1.7 1.48-4.2 2.2-7.51 2.2h-15.91v-18.59zm-14.46 54.77h14.46v-25.83h14.54c3.62 0 6.29.81 7.83 2.41 1.62 1.62 2.66 4.12 3.15 7.58.24 1.3.32 2.68.48 4.12.09 1.46.16 2.86.33 4.27.15 1.37.32 2.71.56 3.97.24 1.25.57 2.4.98 3.48h14.53c-.65-.94-1.21-2.08-1.54-3.44a35.38 35.38 0 0 1-.72-4.2c-.16-1.47-.24-2.88-.32-4.31-.08-1.42-.16-2.65-.25-3.7-.08-1.67-.32-3.31-.65-4.94-.32-1.63-.89-3.17-1.61-4.6-.73-1.41-1.7-2.63-2.9-3.63-1.14-1.03-2.59-1.77-4.45-2.27v-.18c3.71-1.48 6.38-3.64 8-6.48 1.7-2.83 2.5-6.2 2.5-10.09 0-2.46-.48-4.82-1.37-7.02-.89-2.23-2.19-4.16-3.88-5.83-1.69-1.66-3.72-2.98-6.06-3.93-2.42-.97-5.09-1.44-8-1.44h-35.61v66.06zm64.12 0h14.54v-66.06h-14.54v66.06zm93.2 0h14.46v-66.06h-14.46v66.06zm25.05 0h13.56v-44.21h.16c9.12 14.74 18.26 29.47 27.46 44.21h14.54v-66.06h-13.57v44.3h-.16c-9.2-14.76-18.41-29.53-27.63-44.3h-14.36v66.06zm91.66-49.77h.15c2.75 8.09 5.5 16.16 8.32 24.23h-17.12c2.83-8.07 5.74-16.14 8.65-24.23zm-32.31 49.77h14.69c1.71-4.91 3.48-9.8 5.26-14.72h24.64c1.61 4.92 3.3 9.81 5.01 14.72h15.1l-12.37-33.03c-4.12-10.99-8.23-22.01-12.35-33.03h-14.86c-4.21 11.02-8.48 22.04-12.6 33.03-4.12 11-8.41 22.03-12.52 33.03zm68.32 0h46.68v-12.24h-32.16v-53.82h-14.53v66.06z" style="fill:#c5c6c6;fill-rule:nonzero"/><path d="M9878.24 9868.79h-550.22v96.33h550.22zM3304.81 9763.33h4541.44v-24.69H3304.81z" class="mini-fil2"/></g></g></svg>